<svg width="194" height="63" viewBox="0 0 194 63" fill="none" xmlns="http://www.w3.org/2000/svg">
<g filter="url(#filter0_d_0_15)">
<rect x="4" width="186" height="55" rx="10" fill="black"/>
<path fill-rule="evenodd" clip-rule="evenodd" d="M42.3922 27.9137C42.3535 24.1311 45.8828 22.2914 46.044 22.2047C44.0461 19.6184 40.9461 19.265 39.858 19.2375C37.2555 18.9955 34.7321 20.6194 33.4053 20.6194C32.0537 20.6194 30.0124 19.2622 27.8129 19.3021C24.9826 19.3406 22.3321 20.7954 20.8798 23.0531C17.8821 27.6566 20.1172 34.423 22.9893 38.1437C24.4262 39.9684 26.1048 42.0034 28.3027 41.9305C30.4526 41.8521 31.2555 40.715 33.8502 40.715C36.4216 40.715 37.1749 41.9305 39.4162 41.8851C41.7226 41.8521 43.1765 40.0536 44.5622 38.2139C46.2238 36.1252 46.8903 34.0682 46.9167 33.9624C46.8624 33.9459 42.4356 32.4485 42.3922 27.9137Z" fill="#FFFFFE"/>
<path fill-rule="evenodd" clip-rule="evenodd" d="M38.1577 16.7899C39.314 15.507 40.1045 13.7621 39.8859 11.9897C38.2119 12.0557 36.1194 13.0169 34.9135 14.2722C33.8471 15.3777 32.8939 17.1914 33.1403 18.8936C35.0205 19.0187 36.9518 18.0521 38.1577 16.7899Z" fill="#FFFFFE"/>
<path fill-rule="evenodd" clip-rule="evenodd" d="M62.9914 35.1873H68.807L65.9395 27.6977H65.8605L62.9914 35.1873ZM69.5681 37.3172H62.2319L60.4696 41.9317H57.3618L64.312 24.8569H67.5407L74.4893 41.9317H71.3289L69.5681 37.3172Z" fill="#FFFFFE"/>
<path fill-rule="evenodd" clip-rule="evenodd" d="M86.5367 35.7083C86.5367 33.1879 85.0689 31.531 82.8276 31.531C80.6266 31.531 79.1463 33.2223 79.1463 35.7083C79.1463 38.2163 80.6266 39.8965 82.8276 39.8965C85.0689 39.8965 86.5367 38.252 86.5367 35.7083ZM89.4972 35.7083C89.4972 39.5762 87.1629 42.0622 83.6413 42.0622C81.6418 42.0622 80.0531 41.2688 79.2254 39.8842H79.1587V46.0497H76.2788V29.4837H79.0673V31.5544H79.12C79.9198 30.2179 81.6279 29.353 83.5886 29.353C87.1505 29.353 89.4972 31.85 89.4972 35.7083Z" fill="#FFFFFE"/>
<path fill-rule="evenodd" clip-rule="evenodd" d="M101.982 35.7083C101.982 33.1879 100.515 31.531 98.2734 31.531C96.0724 31.531 94.5921 33.2223 94.5921 35.7083C94.5921 38.2163 96.0724 39.8965 98.2734 39.8965C100.515 39.8965 101.982 38.252 101.982 35.7083ZM104.943 35.7083C104.943 39.5762 102.609 42.0622 99.0871 42.0622C97.0876 42.0622 95.4989 41.2688 94.6712 39.8842H94.6045V46.0497H91.7246V29.4837H94.5131V31.5544H94.5658C95.3656 30.2179 97.0737 29.353 99.0344 29.353C102.596 29.353 104.943 31.85 104.943 35.7083Z" fill="#FFFFFE"/>
<path fill-rule="evenodd" clip-rule="evenodd" d="M115.151 37.1746C115.365 38.8673 117.219 39.9796 119.753 39.9796C122.18 39.9796 123.927 38.8673 123.927 37.341C123.927 36.0155 122.873 35.2221 120.379 34.679L117.885 34.1455C114.35 33.3879 112.71 31.9221 112.71 29.542C112.71 26.5968 115.604 24.5728 119.713 24.5728C123.78 24.5728 126.569 26.5968 126.663 29.542H123.755C123.58 27.8384 121.993 26.8099 119.673 26.8099C117.352 26.8099 115.765 27.8508 115.765 29.3646C115.765 30.5719 116.779 31.2828 119.259 31.8259L121.381 32.2879C125.329 33.117 126.97 34.5236 126.97 37.022C126.97 40.2161 124.101 42.2168 119.539 42.2168C115.271 42.2168 112.389 40.2629 112.203 37.1746H115.151Z" fill="#FFFFFE"/>
<path fill-rule="evenodd" clip-rule="evenodd" d="M133.187 26.5371V29.4837H135.856V31.5064H133.187V38.369C133.187 39.436 133.721 39.9324 134.895 39.9324C135.188 39.9324 135.656 39.8966 135.842 39.8732V41.8849C135.523 41.9564 134.882 42.0031 134.242 42.0031C131.401 42.0031 130.293 41.0571 130.293 38.6426V31.5064H128.251V29.4837H130.293V26.5371H133.187Z" fill="#FFFFFE"/>
<path fill-rule="evenodd" clip-rule="evenodd" d="M147.779 35.7082C147.779 33.0215 146.39 31.4361 144.057 31.4361C141.723 31.4361 140.336 33.0338 140.336 35.7082C140.336 38.406 141.723 39.979 144.057 39.979C146.39 39.979 147.779 38.406 147.779 35.7082ZM137.401 35.7082C137.401 31.7908 140.001 29.3296 144.057 29.3296C148.126 29.3296 150.714 31.7908 150.714 35.7082C150.714 39.6352 148.138 42.0868 144.057 42.0868C139.976 42.0868 137.401 39.6352 137.401 35.7082Z" fill="#FFFFFE"/>
<path fill-rule="evenodd" clip-rule="evenodd" d="M153.088 29.4832H155.835V31.602H155.902C156.343 30.194 157.624 29.3525 159.278 29.3525C159.691 29.3525 160.037 29.4007 160.265 29.4488V31.8385C160.037 31.7547 159.53 31.6845 158.971 31.6845C157.117 31.6845 155.968 32.7969 155.968 34.5487V41.9324H153.088V29.4832Z" fill="#FFFFFE"/>
<path fill-rule="evenodd" clip-rule="evenodd" d="M163.808 34.5606H170.824C170.757 32.6548 169.384 31.4008 167.383 31.4008C165.394 31.4008 163.956 32.6796 163.808 34.5606ZM173.546 38.2758C173.158 40.5363 170.678 42.0873 167.504 42.0873C163.421 42.0873 160.887 39.6605 160.887 35.7678C160.887 31.8628 163.435 29.3301 167.383 29.3301C171.266 29.3301 173.707 31.6965 173.707 35.4708V36.3467H163.795V36.5007C163.795 38.6306 165.303 40.0276 167.57 40.0276C169.17 40.0276 170.425 39.3525 170.811 38.2758H173.546Z" fill="#FFFFFE"/>
<path fill-rule="evenodd" clip-rule="evenodd" d="M60.7264 19.049H62.4702C64.4046 19.049 65.5206 17.9806 65.5206 16.0983C65.5206 14.2448 64.386 13.164 62.4702 13.164H60.7264V19.049ZM62.6313 12.0049C65.3733 12.0049 66.9822 13.4995 66.9822 16.0818C66.9822 18.7025 65.3857 20.2095 62.6313 20.2095H59.2896V12.0049H62.6313Z" fill="#FFFFFE"/>
<path fill-rule="evenodd" clip-rule="evenodd" d="M73.7711 17.1109C73.7711 15.7689 73.0922 14.9838 71.8987 14.9838C70.7021 14.9838 70.0279 15.7689 70.0279 17.1109C70.0279 18.4639 70.7021 19.2422 71.8987 19.2422C73.0922 19.2422 73.7711 18.4584 73.7711 17.1109ZM68.605 17.1109C68.605 15.1144 69.862 13.8989 71.8987 13.8989C73.9323 13.8989 75.1878 15.1144 75.1878 17.1109C75.1878 19.1171 73.937 20.3284 71.8987 20.3284C69.8558 20.3284 68.605 19.1171 68.605 17.1109Z" fill="#FFFFFE"/>
<path fill-rule="evenodd" clip-rule="evenodd" d="M83.9388 20.2097H82.5097L81.0667 15.6502H80.9582L79.5213 20.2097H78.1062L76.1826 14.0181H77.5792L78.83 18.7426H78.9339L80.3676 14.0181H81.6898L83.1251 18.7426H83.2336L84.4782 14.0181H85.8546L83.9388 20.2097Z" fill="#FFFFFE"/>
<path fill-rule="evenodd" clip-rule="evenodd" d="M87.4731 14.0181H88.7984V15.0012H88.9022C89.2417 14.3137 89.9345 13.8984 90.9854 13.8984C92.5432 13.8984 93.4004 14.7289 93.4004 16.2016V20.2097H92.024V16.5082C92.024 15.5127 91.5357 15.0191 90.5173 15.0191C89.499 15.0191 88.8511 15.6213 88.8511 16.5879V20.2097H87.4731V14.0181Z" fill="#FFFFFE"/>
<mask id="mask0_0_15" style="mask-type:luminance" maskUnits="userSpaceOnUse" x="4" y="0" width="186" height="55">
<path fill-rule="evenodd" clip-rule="evenodd" d="M4 55H189.479V0H4V55Z" fill="white"/>
</mask>
<g mask="url(#mask0_0_15)">
<path fill-rule="evenodd" clip-rule="evenodd" d="M95.5958 20.21H96.9737V11.6011H95.5958V20.21Z" fill="#FFFFFE"/>
<path fill-rule="evenodd" clip-rule="evenodd" d="M104.054 17.1109C104.054 15.7689 103.375 14.9838 102.181 14.9838C100.985 14.9838 100.311 15.7689 100.311 17.1109C100.311 18.4639 100.985 19.2422 102.181 19.2422C103.375 19.2422 104.054 18.4584 104.054 17.1109ZM98.8877 17.1109C98.8877 15.1144 100.145 13.8989 102.181 13.8989C104.215 13.8989 105.472 15.1144 105.472 17.1109C105.472 19.1171 104.22 20.3284 102.181 20.3284C100.139 20.3284 98.8877 19.1171 98.8877 17.1109Z" fill="#FFFFFE"/>
<path fill-rule="evenodd" clip-rule="evenodd" d="M111.408 17.9294V17.4124L109.703 17.5087C108.742 17.5651 108.306 17.8552 108.306 18.4011C108.306 18.9593 108.852 19.2824 109.6 19.2824C110.639 19.2824 111.408 18.6967 111.408 17.9294ZM106.92 18.4588C106.92 17.3437 107.857 16.7016 109.517 16.6108L111.408 16.5132V15.9797C111.408 15.3252 110.921 14.9553 109.979 14.9553C109.21 14.9553 108.677 15.2069 108.525 15.6442H107.19C107.331 14.5799 108.46 13.8979 110.042 13.8979C111.792 13.8979 112.779 14.6707 112.779 15.9797V20.2092H111.453V19.3388H111.344C110.927 19.959 110.165 20.311 109.247 20.311C107.902 20.311 106.92 19.5904 106.92 18.4588Z" fill="#FFFFFE"/>
<path fill-rule="evenodd" clip-rule="evenodd" d="M116.012 17.1107C116.012 18.4238 116.71 19.2144 117.877 19.2144C119.038 19.2144 119.756 18.4128 119.756 17.1162C119.756 15.8251 119.03 15.0124 117.877 15.0124C116.718 15.0124 116.012 15.8086 116.012 17.1107ZM114.589 17.1107C114.589 15.1541 115.722 13.9152 117.486 13.9152C118.441 13.9152 119.249 14.3181 119.627 15.0014H119.729V11.6011H121.107V20.2086H119.788V19.2309H119.678C119.263 19.9074 118.447 20.3117 117.486 20.3117C115.712 20.3117 114.589 19.0714 114.589 17.1107Z" fill="#FFFFFE"/>
<path fill-rule="evenodd" clip-rule="evenodd" d="M131.973 17.1109C131.973 15.7689 131.294 14.9838 130.1 14.9838C128.904 14.9838 128.23 15.7689 128.23 17.1109C128.23 18.4639 128.904 19.2422 130.1 19.2422C131.294 19.2422 131.973 18.4584 131.973 17.1109ZM126.807 17.1109C126.807 15.1144 128.064 13.8989 130.1 13.8989C132.134 13.8989 133.389 15.1144 133.389 17.1109C133.389 19.1171 132.139 20.3284 130.1 20.3284C128.057 20.3284 126.807 19.1171 126.807 17.1109Z" fill="#FFFFFE"/>
<path fill-rule="evenodd" clip-rule="evenodd" d="M135.238 14.0181H136.563V15.0012H136.667C137.006 14.3137 137.699 13.8984 138.75 13.8984C140.308 13.8984 141.165 14.7289 141.165 16.2016V20.2097H139.789V16.5082C139.789 15.5127 139.3 15.0191 138.282 15.0191C137.264 15.0191 136.616 15.6213 136.616 16.5879V20.2097H135.238V14.0181Z" fill="#FFFFFE"/>
<path fill-rule="evenodd" clip-rule="evenodd" d="M148.949 12.4766V14.0468H150.461V15.0753H148.949V18.2598C148.949 18.9074 149.249 19.1921 149.936 19.1921C150.147 19.1921 150.269 19.1797 150.461 19.1632V20.1821C150.237 20.2151 149.979 20.2439 149.711 20.2439C148.18 20.2439 147.569 19.7654 147.569 18.5719V15.0753H146.462V14.0468H147.569V12.4766H148.949Z" fill="#FFFFFE"/>
<path fill-rule="evenodd" clip-rule="evenodd" d="M152.342 11.6011H153.708V15.0124H153.816C154.156 14.3194 154.894 13.9042 155.944 13.9042C157.431 13.9042 158.349 14.7402 158.349 16.2128V20.21H156.969V16.5139C156.969 15.5253 156.45 15.0234 155.476 15.0234C154.348 15.0234 153.72 15.656 153.72 16.5937V20.21H152.342V11.6011Z" fill="#FFFFFE"/>
<path fill-rule="evenodd" clip-rule="evenodd" d="M161.535 16.5426H165.059C165.028 15.5704 164.362 14.9379 163.342 14.9379C162.324 14.9379 161.612 15.5759 161.535 16.5426ZM166.38 18.5377C166.067 19.6473 164.951 20.3293 163.356 20.3293C161.356 20.3293 160.132 19.1124 160.132 17.1338C160.132 15.1552 161.381 13.8984 163.35 13.8984C165.292 13.8984 166.464 15.0754 166.464 17.0197V17.4459H161.535V17.5147C161.58 18.6009 162.291 19.2884 163.393 19.2884C164.227 19.2884 164.797 19.0217 165.055 18.5377H166.38Z" fill="#FFFFFE"/>
</g>
</g>
<defs>
<filter id="filter0_d_0_15" x="0" y="0" width="194" height="63" filterUnits="userSpaceOnUse" color-interpolation-filters="sRGB">
<feFlood flood-opacity="0" result="BackgroundImageFix"/>
<feColorMatrix in="SourceAlpha" type="matrix" values="0 0 0 0 0 0 0 0 0 0 0 0 0 0 0 0 0 0 127 0" result="hardAlpha"/>
<feOffset dy="4"/>
<feGaussianBlur stdDeviation="2"/>
<feColorMatrix type="matrix" values="0 0 0 0 0 0 0 0 0 0 0 0 0 0 0 0 0 0 0.25 0"/>
<feBlend mode="normal" in2="BackgroundImageFix" result="effect1_dropShadow_0_15"/>
<feBlend mode="normal" in="SourceGraphic" in2="effect1_dropShadow_0_15" result="shape"/>
</filter>
</defs>
</svg>
